<?xml version="1.0" encoding="utf-8"?>
<!-- Generator: Adobe Illustrator 24.0.1, SVG Export Plug-In . SVG Version: 6.00 Build 0)  -->
<svg version="1.1" id="Layer_1" xmlns="http://www.w3.org/2000/svg" xmlns:xlink="http://www.w3.org/1999/xlink" x="0px" y="0px"
	 viewBox="0 0 867.8 800" style="enable-background:new 0 0 867.8 800;" xml:space="preserve">
<style type="text/css">
	.st0{fill:#CCCCCC;}
</style>
<g id="XMLID_2_">
	<path id="XMLID_4_" class="st0" d="M236.4,400c0-20.1-16.3-36.4-36.4-36.4H54.5c-20.1,0-36.4,16.3-36.4,36.4
		c0,20.1,16.3,36.4,36.4,36.4H200C220.1,436.4,236.4,420.1,236.4,400z"/>
	<path id="XMLID_1_" class="st0" d="M854.5,400c0-20.1-16.3-36.4-36.4-36.4H672.7c-20.1,0-36.4,16.3-36.4,36.4
		c0,20.1,16.3,36.4,36.4,36.4h145.5C838.3,436.4,854.5,420.1,854.5,400z"/>
	<path id="XMLID_6_" class="st0" d="M418.2,218.2c20.1,0,36.4-16.3,36.4-36.4V36.4c0-20.1-16.3-36.4-36.4-36.4
		c-20.1,0-36.4,16.3-36.4,36.4v145.5C381.8,201.9,398.1,218.2,418.2,218.2z"/>
	<path id="XMLID_7_" class="st0" d="M418.2,581.8c-20.1,0-36.4,16.3-36.4,36.4v145.5c0,20.1,16.3,36.4,36.4,36.4
		c20.1,0,36.4-16.3,36.4-36.4V618.2C454.5,598.1,438.3,581.8,418.2,581.8z"/>
	<path id="XMLID_8_" class="st0" d="M186.8,117.2c-14.2-14.2-37.2-14.2-51.4,0c-14.2,14.2-14.2,37.2,0,51.4l102.9,102.9
		c7.1,7.1,16.4,10.7,25.7,10.7c9.3,0,18.6-3.6,25.7-10.6c14.2-14.2,14.2-37.2,0-51.4L186.8,117.2z"/>
	<path id="XMLID_9_" class="st0" d="M598.2,528.6c-14.2-14.2-37.2-14.2-51.4,0c-14.2,14.2-14.2,37.2,0,51.4l102.9,102.9
		c7.1,7.1,16.4,10.6,25.7,10.6s18.6-3.6,25.7-10.6c14.2-14.2,14.2-37.2,0-51.4L598.2,528.6z"/>
	<path id="XMLID_10_" class="st0" d="M238.2,528.6L135.3,631.4c-14.2,14.2-14.2,37.2,0,51.4c7.1,7.1,16.4,10.6,25.7,10.6
		c9.3,0,18.6-3.5,25.7-10.6L289.6,580c14.2-14.2,14.2-37.2,0-51.4C275.4,514.4,252.4,514.4,238.2,528.6z"/>
</g>
</svg>
