<?xml version="1.0" encoding="utf-8"?>
<!-- Generator: Adobe Illustrator 24.0.1, SVG Export Plug-In . SVG Version: 6.00 Build 0)  -->
<svg version="1.1" id="圖層_1" xmlns="http://www.w3.org/2000/svg" xmlns:xlink="http://www.w3.org/1999/xlink" x="0px" y="0px"
	 viewBox="0 0 24 24" style="enable-background:new 0 0 24 24;" xml:space="preserve">
<path d="M10,0C4.5,0,0,4.5,0,10s4.5,10,10,10c2.4,0,4.6-0.9,6.3-2.3l6,6c0.4,0.4,1,0.4,1.4,0s0.4-1,0-1.4c0,0,0,0,0,0l-6-6
	c1.4-1.7,2.3-3.9,2.3-6.3C20,4.5,15.5,0,10,0z M10,2c4.4,0,8,3.6,8,8s-3.6,8-8,8s-8-3.6-8-8S5.6,2,10,2z"/>
</svg>
