<?xml version="1.0" encoding="utf-8"?>
<!-- Generator: Adobe Illustrator 24.0.1, SVG Export Plug-In . SVG Version: 6.00 Build 0)  -->
<svg version="1.1" id="_24x24_On_Light_Recent" xmlns="http://www.w3.org/2000/svg" xmlns:xlink="http://www.w3.org/1999/xlink"
	 x="0px" y="0px" viewBox="0 0 672.8 650" style="enable-background:new 0 0 672.8 650;" xml:space="preserve">
<style type="text/css">
	.st0{fill:none;}
	.st1{fill:#5E646A;}
</style>
<rect id="view-box" x="-52.3" y="-75" class="st0" width="800" height="800"/>
<path class="st1" d="M322.7,625c0-13.8,11.2-25,25-25c151.9,0,275-123.1,275-275c0-151.9-123.1-275-275-275
	c-151.9,0-275,123.1-275,275c0,67,24.4,131.6,68.7,181.8v-87.9c0-13.8,11.2-25,25-25c13.8,0,25,11.2,25,25v141.4
	c0,13.8-11.2,25-25,25c0,0,0,0,0,0H25c-13.8,0-25-11.2-25-25c0-13.8,11.2-25,25-25h75C-16.2,398.5,0.6,193.4,137.4,77.2
	s341.9-99.4,458.1,37.4s99.4,341.9-37.4,458.1C499.4,622.6,424.8,650,347.8,650C334,650,322.8,638.8,322.7,625
	C322.7,625,322.7,625,322.7,625z"/>
<path class="st1" d="M418.6,464.5L330,376c-4.7-4.7-7.3-11.1-7.3-17.7V185c0-13.8,11.2-25,25-25s25,11.2,25,25v163l81.2,81.2
	c9.9,9.6,10.2,25.4,0.6,35.4c-9.6,9.9-25.4,10.2-35.4,0.6C418.9,464.9,418.7,464.7,418.6,464.5L418.6,464.5z"/>
</svg>
