<?xml version="1.0" encoding="utf-8"?>
<!-- Generator: Adobe Illustrator 24.0.1, SVG Export Plug-In . SVG Version: 6.00 Build 0)  -->
<svg version="1.1" id="Layer_1" xmlns="http://www.w3.org/2000/svg" xmlns:xlink="http://www.w3.org/1999/xlink" x="0px" y="0px"
	 viewBox="0 0 512 512" style="enable-background:new 0 0 512 512;" xml:space="preserve">
<style type="text/css">
	.st0{fill:#FA8334;}
</style>
<path class="st0" d="M510.9,196.5c-2.7-8.4-10.1-14.6-18.8-15.9L343.4,159L276.9,24.4c-3.9-7.9-12.1-13-20.9-13
	c-8.8,0-17,5.1-20.9,13l-66.5,134.7L19.9,180.7c-8.8,1.3-16.1,7.4-18.8,15.9c-2.7,8.4-0.4,17.7,5.9,23.9l107.6,104.9l-25.4,148
	c-1.5,8.7,2.1,17.6,9.3,22.8c7.2,5.2,16.7,5.9,24.5,1.8l133.1-70L389,498c7.8,4.1,17.4,3.4,24.5-1.8c7.2-5.2,10.8-14.1,9.3-22.8
	l-25.4-148.1L505,220.4C511.3,214.2,513.6,204.9,510.9,196.5z"/>
</svg>
