<?xml version="1.0" encoding="utf-8"?>
<!-- Generator: Adobe Illustrator 24.0.1, SVG Export Plug-In . SVG Version: 6.00 Build 0)  -->
<svg version="1.1" id="圖層_1" xmlns="http://www.w3.org/2000/svg" xmlns:xlink="http://www.w3.org/1999/xlink" x="0px" y="0px"
	 viewBox="0 0 149 132" style="enable-background:new 0 0 149 132;" xml:space="preserve">
<style type="text/css">
	.st0{fill:#CCCCCC;}
</style>
<path class="st0" d="M143.2,106c0,6.2-5.1,11.4-11.4,11.4H18.2c-6.2,0-11.4-5.1-11.4-11.4V19.6c0-6.2,5.1-11.4,11.4-11.4h113.6
	c6.2,0,11.4,5.1,11.4,11.4V106z M18.2,17.3c-1.2,0-2.3,1.1-2.3,2.3V106c0,1.2,1.1,2.3,2.3,2.3h113.6c1.2,0,2.3-1.1,2.3-2.3V19.6
	c0-1.2-1.1-2.3-2.3-2.3C131.8,17.3,18.2,17.3,18.2,17.3z M38.7,53.7c-7.5,0-13.6-6.1-13.6-13.6s6.1-13.6,13.6-13.6
	s13.6,6.1,13.6,13.6S46.2,53.7,38.7,53.7z M125,99.1H25V85.5l22.7-22.7l11.4,11.4l36.4-36.4L125,67.3V99.1z"/>
</svg>
