<?xml version="1.0" encoding="utf-8"?>
<!-- Generator: Adobe Illustrator 24.0.1, SVG Export Plug-In . SVG Version: 6.00 Build 0)  -->
<svg version="1.1" id="圖層_1" xmlns="http://www.w3.org/2000/svg" xmlns:xlink="http://www.w3.org/1999/xlink" x="0px" y="0px"
	 viewBox="0 0 69.8 57" style="enable-background:new 0 0 69.8 57;" xml:space="preserve">
<style type="text/css">
	.st0{fill:#5E646A;}
</style>
<title>logo</title>
<g>
	<path class="st0" d="M11.1,39c1.8-10,9.1-19.9,15-28.8c2-3,4.3-6,7.5-7.7s7.7-1.8,10.1,0.9c1.8,2,1.6,2.6,2.4,4
		c5.8,11.6,8.2,19.1,12.3,28.5c0.4,1,0,2.1-1,2.5l-0.3,0.1C41.9,42.2,25.5,44.7,11.1,39"/>
	<path class="st0" d="M12.4,39.4c1.7-9.3,7.3-17.3,12.4-25c2.4-3.6,4.7-7.8,8.4-10.1c3.1-2,7.5-2.4,10,0.8c0.8,1.3,1.5,2.7,2.1,4.1
		c1.1,2.1,2.1,4.3,3.1,6.5c1.7,3.7,3.2,7.5,4.7,11.3c0.7,1.8,1.5,3.7,2.3,5.6c0.4,0.9,0.7,1.8,1.1,2.7c0.2,0.6,1,1.6,0.3,2
		c-0.5,0.2-1.1,0.3-1.7,0.4L53.5,38c-1.2,0.3-2.4,0.5-3.6,0.8c-2.4,0.5-4.8,0.9-7.3,1.3c-10.5,1.5-21.3,1.5-31.3-2.4
		c-1.6-0.6-2.3,2-0.7,2.6c9.8,3.8,20.6,4,30.8,2.6c5.1-0.7,10.2-1.6,15.2-2.9c1.1-0.1,2.1-0.7,2.7-1.6c0.5-0.8,0.6-1.9,0.3-2.8
		c-0.7-2.1-1.7-4.1-2.5-6.1C53.8,21.3,50.4,13,46.5,4.9C44.6,1,40.4-0.5,36.3,0.2C31.7,1,28.4,4.7,25.8,8.4
		c-3.3,4.7-6.6,9.5-9.5,14.5s-5.4,10.2-6.5,15.8C9.5,40.4,12.1,41.1,12.4,39.4L12.4,39.4z"/>
	<path class="st0" d="M0.2,40.8c-0.5-0.6,0.2-1.3,0.9-1.6s1.5-0.1,2,0.4c0.5,0.6,0.6,1.4,0.4,2.1C3.4,42,3.3,42.3,3,42.5
		c-0.5,0.3-1.1,0.2-1.5-0.1C1.1,42,0.6,41.4,0.2,40.8"/>
	<path class="st0" d="M8,43.1c0.8-0.6,1.6,0.3,2.1,1.2c0.4,0.9,0.2,2-0.6,2.6s-1.8,0.8-2.7,0.6c-0.4-0.1-0.8-0.3-1.1-0.6
		c-0.4-0.6-0.3-1.4,0.1-2C6.5,44.2,7.2,43.6,8,43.1"/>
	<path class="st0" d="M67.6,37.9c0.4,1.8-1.6,2.9-2.9,3.5c-1.7,0.8-3.3,1.4-5.1,2c-3.3,1.2-6.6,2.1-10.1,2.9c-7,1.5-14.1,2.2-21.3,2
		C24.1,48.2,20,47.8,16,47c-1.3-0.2-1.8,1.7-0.5,2c15.6,2.8,31.7,1.3,46.6-4.2c3.1-1.2,8.5-3,7.6-7.4C69.4,36.1,67.4,36.7,67.6,37.9
		L67.6,37.9z"/>
	<path class="st0" d="M8.8,52.4c6.2,4,13.6,4.4,20.7,4.5c3.9,0.2,7.7,0.1,11.6-0.2c3.8-0.4,7.7-1.2,11.4-2.2c4.1-1.1,8.1-2.4,12-4
		c1.2-0.5,0.7-2.5-0.5-2c-6.8,2.8-13.8,4.8-21.1,6c-3.7,0.5-7.5,0.6-11.2,0.5c-3.5,0-7-0.2-10.5-0.5c-4-0.4-7.9-1.7-11.3-3.8
		C8.7,49.9,7.6,51.7,8.8,52.4z"/>
</g>
</svg>
